<svg xmlns="http://www.w3.org/2000/svg" width="25" height="16" viewBox="0 0 25 16">
  <path id="Icon_awesome-bars" data-name="Icon awesome-bars" d="M.893,7.157H24.107c.493,0,.893-.292.893-.653V4.872c0-.361-.4-.653-.893-.653H.893C.4,4.219,0,4.511,0,4.872V6.5C0,6.865.4,7.157.893,7.157Zm0,6.531H24.107c.493,0,.893-.292.893-.653V11.4c0-.361-.4-.653-.893-.653H.893C.4,10.749,0,11.042,0,11.4v1.633C0,13.4.4,13.688.893,13.688Zm0,6.531H24.107c.493,0,.893-.292.893-.653V17.933c0-.361-.4-.653-.893-.653H.893c-.493,0-.893.292-.893.653v1.633C0,19.926.4,20.219.893,20.219Z" transform="translate(0 -4.219)" fill="#eeebd3"/>
</svg>
